<?xml version="1.0" encoding="utf-8"?>
<!-- Generator: Adobe Illustrator 16.0.0, SVG Export Plug-In . SVG Version: 6.00 Build 0)  -->
<!DOCTYPE svg PUBLIC "-//W3C//DTD SVG 1.1//EN" "http://www.w3.org/Graphics/SVG/1.1/DTD/svg11.dtd">
<svg version="1.1" id="Capa_1" xmlns="http://www.w3.org/2000/svg" xmlns:xlink="http://www.w3.org/1999/xlink" x="0px" y="0px"
	 width="21.33px" height="21.772px" viewBox="0 0 21.33 21.772" enable-background="new 0 0 21.33 21.772" xml:space="preserve">
<g>
	<defs>
		<rect id="SVGID_1_" y="0" width="21.33" height="21.773"/>
	</defs>
	<clipPath id="SVGID_2_">
		<use xlink:href="#SVGID_1_"  overflow="visible"/>
	</clipPath>
	<path clip-path="url(#SVGID_2_)" fill="#5F5F5F" d="M10.117,7.05H6.671V4.79c0-0.849,0.563-1.046,0.959-1.046h2.432V0.013L6.713,0
		C2.995,0,2.149,2.783,2.149,4.563V7.05H0v3.845h2.149v10.877h4.522V10.895h3.052L10.117,7.05z"/>
	<path clip-path="url(#SVGID_2_)" fill="#5F5F5F" d="M15.414,18.005c0-2.626,0.114-4.351,0.342-5.174
		c0.228-0.824,0.54-1.393,0.938-1.708c0.396-0.315,0.882-0.473,1.454-0.473c0.59,0,1.229,0.223,1.918,0.669l1.265-3.561
		c-0.863-0.514-1.759-0.77-2.689-0.77c-0.658,0-1.247,0.164-1.766,0.494c-0.519,0.329-1.103,1.012-1.752,2.049V7.336H11.33v14.436
		h4.084V18.005z"/>
</g>
</svg>
