<?xml version="1.0" standalone="no"?>
<!DOCTYPE svg PUBLIC "-//W3C//DTD SVG 1.1//EN" "http://www.w3.org/Graphics/SVG/1.1/DTD/svg11.dtd" >
<svg xmlns="http://www.w3.org/2000/svg">
<metadata></metadata>
<defs>
<font id="decklight" horiz-adv-x="1331" >
<font-face units-per-em="2048" ascent="1638" descent="-410" />
<missing-glyph horiz-adv-x="921" />
<glyph unicode="&#xfb01;" horiz-adv-x="1208" d="M143 954v95h185v139q0 140 79 217.5t218 77.5q86 0 156 -45t108 -119l-90 -41q-24 51 -69.5 81t-104.5 30q-195 0 -195 -203v-137h635v-1049h-102v954h-533v-954h-102v954h-185z" />
<glyph unicode="&#xfb02;" horiz-adv-x="1253" d="M143 954v95h185v81q0 161 111 257t280 96t280 -96t111 -257v-1130h-102v1130q0 121 -80.5 190t-208.5 69t-208.5 -69t-80.5 -190v-81h344v-95h-344v-954h-102v954h-185z" />
<glyph horiz-adv-x="0" />
<glyph horiz-adv-x="682" />
<glyph unicode="&#xd;" />
<glyph unicode=" "  horiz-adv-x="921" />
<glyph unicode="&#x09;" horiz-adv-x="921" />
<glyph unicode="&#xa0;" horiz-adv-x="921" />
<glyph unicode="!" horiz-adv-x="610" d="M201 0v211h209v-211h-209zM254 403v1063h102v-1063h-102z" />
<glyph unicode="&#x22;" d="M422 1030v436h102v-436h-102zM807 1030v436h102v-436h-102z" />
<glyph unicode="#" d="M147 344v94h234v592h-234v94h234v342h102v-342h365v342h102v-342h234v-94h-234v-592h234v-94h-234v-344h-102v344h-365v-344h-102v344h-234zM483 438h365v592h-365v-592z" />
<glyph unicode="$" d="M242 188l92 43q38 -71 104.5 -112t149.5 -41h98q127 0 213 78t86 200q0 136 -79 224t-240 114q-90 15 -163.5 44.5t-133.5 77.5t-93.5 122t-33.5 168q0 159 109.5 265.5t271.5 111.5v162h102v-162q109 -1 201.5 -57t142.5 -148l-92 -43q-38 71 -104.5 112.5t-149.5 41.5 h-80q-126 0 -212.5 -80t-86.5 -203q0 -141 87 -216t259 -106q85 -15 154.5 -46.5t125 -82t86.5 -126t31 -169.5q0 -155 -103 -259t-259 -115v-164h-102v162h-35q-111 0 -203.5 55.5t-142.5 148.5z" />
<glyph unicode="%" d="M66 879v319q0 86 60 146.5t146 60.5t146.5 -60.5t60.5 -146.5v-319q0 -86 -60.5 -146.5t-146.5 -60.5t-146 60.5t-60 146.5zM147 0l920 1466h117l-920 -1466h-117zM168 879q0 -47 29.5 -80t74.5 -33t75 33t30 80v319q0 47 -30 80t-75 33t-74.5 -33t-29.5 -80v-319z M852 268v320q0 86 60.5 146.5t146.5 60.5t146.5 -60.5t60.5 -146.5v-320q0 -86 -60.5 -146.5t-146.5 -60.5t-146.5 60.5t-60.5 146.5zM954 268q0 -46 30 -79t75 -33t74.5 32.5t29.5 79.5v320q0 47 -29.5 79.5t-74.5 32.5t-75 -33t-30 -79v-320z" />
<glyph unicode="&#x26;" horiz-adv-x="1363" d="M164 393q0 120 63.5 217.5t169.5 145.5q-97 47 -155 137.5t-58 202.5q0 160 113.5 273.5t273.5 113.5h60q111 0 203.5 -55.5t142.5 -149.5l-92 -43q-38 71 -104.5 112.5t-149.5 41.5h-60q-121 0 -202.5 -85.5t-81.5 -207.5q0 -123 81 -208t201 -85h389v160h103v-160h139 v-94h-139v-709h-78l-18 150q-52 -77 -133.5 -121.5t-180.5 -44.5h-78q-169 0 -289 120t-120 289zM266 393q0 -131 88.5 -223t218.5 -92h78q128 0 217.5 87.5t89.5 213.5v330h-389q-128 0 -215.5 -93t-87.5 -223z" />
<glyph unicode="'" d="M614 1030v436h103v-436h-103z" />
<glyph unicode="(" d="M532 47v1372q0 104 62 194t164 138l41 -84q-76 -37 -120 -103.5t-44 -144.5v-1372q0 -78 44 -144.5t120 -103.5l-41 -84q-102 48 -164 138t-62 194z" />
<glyph unicode=")" d="M532 -201q76 37 120 103.5t44 144.5v1372q0 78 -44 144.5t-120 103.5l41 84q102 -48 164 -138t62 -194v-1372q0 -104 -62 -194t-164 -138z" />
<glyph unicode="*" d="M279 1126l28 91l324 -121l-13 344h95l-13 -344l322 118l31 -90l-328 -92l217 -274l-78 -58l-198 301l-201 -299l-78 56l217 274z" />
<glyph unicode="+" d="M147 516v94h467v514h103v-514h467v-94h-467v-516h-103v516h-467z" />
<glyph unicode="," horiz-adv-x="620" d="M205 -258q69 60 94 119t25 139h-117v211h209v-186q0 -113 -36.5 -189.5t-123.5 -152.5z" />
<glyph unicode="-" d="M352 516v94h625v-94h-625z" />
<glyph unicode="." horiz-adv-x="610" d="M201 0v211h209v-211h-209z" />
<glyph unicode="/" d="M276 -174l687 1896l90 -32l-682 -1897z" />
<glyph unicode="0" d="M233 379v711q0 164 114 278.5t278 114.5h82q164 0 277.5 -114.5t113.5 -278.5v-713q0 -164 -114.5 -278.5t-278.5 -114.5h-76q-164 0 -280 115.5t-116 279.5zM336 379q0 -125 84.5 -213t208.5 -88h76q114 0 196 76l-532 1077q-33 -59 -33 -141v-711zM432 1315l531 -1077 q32 66 32 139v713q0 126 -82.5 212.5t-205.5 86.5h-82q-112 0 -193 -74z" />
<glyph unicode="1" d="M231 0v94h381v1243l-307 -311l-67 68l374 372h103v-1372h385v-94h-869z" />
<glyph unicode="2" d="M233 0v94l695 801q67 79 67 195q0 126 -82.5 212.5t-205.5 86.5h-127q-83 0 -149.5 -41.5t-104.5 -112.5l-93 43q50 93 143 149t204 56h127q164 0 277.5 -114.5t113.5 -278.5q0 -149 -101 -265l-630 -731h731v-94h-865z" />
<glyph unicode="3" d="M233 188l93 43q38 -71 104.5 -112t149.5 -41h125q124 0 207 87t83 212v143q0 126 -82.5 212.5t-205.5 86.5h-127v94l393 459h-740v94h865v-94l-393 -459h2q164 0 277.5 -114.5t113.5 -278.5v-143q0 -164 -114.5 -278.5t-278.5 -114.5h-125q-111 0 -204 55.5t-143 148.5z " />
<glyph unicode="4" d="M233 344v94l603 1028h114v-1028h148v-94h-148v-344h-102v344h-615zM348 438h500v852z" />
<glyph unicode="5" d="M233 188l93 43q38 -71 104.5 -112t149.5 -41h125q124 0 207 87t83 212v184q0 126 -82.5 212.5t-205.5 86.5h-127q-97 0 -166.5 -51.5t-89.5 -140.5l-91 39l76 759h748v-94h-662l-55 -522q90 104 240 104h127q164 0 277.5 -114.5t113.5 -278.5v-184q0 -164 -114.5 -278.5 t-278.5 -114.5h-125q-111 0 -204 55.5t-143 148.5z" />
<glyph unicode="6" d="M233 377v713q0 164 115 278.5t279 114.5h88q111 0 203.5 -55.5t142.5 -149.5l-92 -43q-38 71 -104.5 112.5t-149.5 41.5h-88q-124 0 -207.5 -87t-83.5 -212v-340q48 68 123.5 106.5t167.5 38.5h75q164 0 280 -115.5t116 -279.5v-123q0 -164 -113.5 -278.5t-277.5 -114.5 h-82q-164 0 -278 114.5t-114 278.5zM336 377q0 -126 82.5 -212.5t206.5 -86.5h82q123 0 205.5 86.5t82.5 212.5v123q0 125 -84.5 213t-208.5 88h-75q-124 0 -207.5 -87t-83.5 -212v-125z" />
<glyph unicode="7" d="M233 1372v94h865v-94l-582 -1372h-100l581 1372h-764z" />
<glyph unicode="8" d="M233 379v35q0 119 63.5 214t168.5 140q-89 48 -141 136t-52 194q0 160 112.5 272.5t272.5 112.5h17q160 0 272.5 -112.5t112.5 -272.5q0 -106 -52.5 -194t-140.5 -136q105 -45 168.5 -140t63.5 -214v-37q0 -164 -114.5 -278.5t-278.5 -114.5h-76q-164 0 -280 115.5 t-116 279.5zM336 379q0 -125 84.5 -213t208.5 -88h76q124 0 207 87t83 212v37q0 126 -82.5 212.5t-205.5 86.5h-82q-124 0 -206.5 -86.5t-82.5 -212.5v-35zM375 1098q0 -121 81.5 -206t200.5 -85h17q119 0 200.5 85t81.5 206t-81.5 206t-200.5 85h-17q-119 0 -200.5 -85 t-81.5 -206z" />
<glyph unicode="9" d="M233 967v123q0 164 114 278.5t278 114.5h82q164 0 277.5 -114.5t113.5 -278.5v-713q0 -164 -114.5 -278.5t-278.5 -114.5h-89q-111 0 -203.5 55.5t-142.5 148.5l92 43q38 -71 104.5 -112t149.5 -41h89q124 0 207 87t83 212v338q-51 -68 -125.5 -106t-164.5 -38h-76 q-164 0 -280 116t-116 280zM336 967q0 -125 84.5 -213t208.5 -88h76q122 0 206 83t84 203v138q0 126 -82.5 212.5t-205.5 86.5h-82q-124 0 -206.5 -86.5t-82.5 -212.5v-123z" />
<glyph unicode=":" horiz-adv-x="651" d="M242 0v211h209v-211h-209zM242 557v211h209v-211h-209z" />
<glyph unicode=";" horiz-adv-x="661" d="M246 -258q69 60 94 119t25 139h-117v211h209v-186q0 -113 -36.5 -189.5t-123.5 -152.5zM248 557v211h209v-211h-209z" />
<glyph unicode="&#x3c;" d="M147 674v119l1037 673v-118l-946 -615l946 -614v-119z" />
<glyph unicode="=" d="M188 221v94h955v-94h-955zM188 680v94h955v-94h-955z" />
<glyph unicode="&#x3e;" d="M147 0v119l945 614l-945 615v118l1037 -673v-119z" />
<glyph unicode="?" horiz-adv-x="1339" d="M246 1278q50 94 142.5 149.5t203.5 55.5h127q172 0 283.5 -100.5t111.5 -266.5q0 -82 -13.5 -139t-50.5 -107t-86.5 -89.5t-136.5 -94.5q-81 -51 -110 -94.5t-29 -114.5v-104h-102v102q0 48 12 88.5t28 68t45.5 55t52.5 43t60 38.5q134 84 181 156.5t47 191.5 q0 123 -79.5 198t-205.5 75h-135q-83 0 -149.5 -41.5t-104.5 -112.5zM532 0v211h209v-211h-209z" />
<glyph unicode="@" d="M147 395v449q0 164 114 278.5t278 114.5h254q164 0 277.5 -114.5t113.5 -278.5v-334q0 -75 -54 -128.5t-129 -53.5q-91 0 -139 78q-51 -78 -147 -78h-99q-86 0 -146 60.5t-60 146.5v151q0 86 60 146.5t146 60.5h99q85 0 133 -68l26 68h48v-383q0 -38 21.5 -63t57.5 -25 t58 25t22 63v334q0 126 -82.5 212.5t-205.5 86.5h-254q-124 0 -206.5 -86.5t-82.5 -212.5v-449q0 -125 84.5 -213t208.5 -88h432v-94h-432q-164 0 -280 115.5t-116 279.5zM512 535q0 -47 29.5 -80t74.5 -33h99q42 0 71.5 29.5t32.5 72.5v170q-3 44 -32.5 74.5t-71.5 30.5 h-99q-45 0 -74.5 -33t-29.5 -80v-151z" />
<glyph unicode="A" horiz-adv-x="1163" d="M92 0l438 1466h103l438 -1466h-104l-113 389h-547l-110 -389h-105zM336 483h491l-245 854z" />
<glyph unicode="B" horiz-adv-x="1232" d="M205 0v1466h446q157 0 268 -111t111 -268q0 -108 -57.5 -195.5t-151.5 -131.5q111 -44 179.5 -140.5t68.5 -218.5q0 -166 -117.5 -283.5t-283.5 -117.5h-463zM307 94h361q127 0 213 89.5t86 217.5t-86 218t-213 90h-361v-615zM307 803h344q118 0 197.5 82.5t79.5 201.5 t-79.5 202t-197.5 83h-344v-569z" />
<glyph unicode="C" horiz-adv-x="1191" d="M184 379v711q0 164 113.5 278.5t277.5 114.5h127q111 0 204 -56t143 -149l-93 -43q-38 71 -104.5 112.5t-149.5 41.5h-127q-123 0 -205.5 -86.5t-82.5 -212.5v-711q0 -125 84.5 -213t208.5 -88h122q83 0 149.5 41t104.5 112l93 -43q-50 -93 -143 -148.5t-204 -55.5h-122 q-164 0 -280 115.5t-116 279.5z" />
<glyph unicode="D" horiz-adv-x="1253" d="M205 0v1466h473q164 0 277.5 -114.5t113.5 -278.5v-680q0 -164 -114.5 -278.5t-278.5 -114.5h-471zM307 94h369q124 0 207.5 87t83.5 212v680q0 126 -82.5 212.5t-206.5 86.5h-371v-1278z" />
<glyph unicode="E" horiz-adv-x="1130" d="M205 0v1466h782v-94h-680v-590h500v-94h-500v-594h680v-94h-782z" />
<glyph unicode="F" horiz-adv-x="1099" d="M205 0v1466h782v-94h-680v-590h500v-94h-500v-688h-102z" />
<glyph unicode="G" horiz-adv-x="1212" d="M184 379v711q0 164 113.5 278.5t277.5 114.5h127q111 0 204 -56t143 -149l-93 -43q-38 71 -104.5 112.5t-149.5 41.5h-127q-123 0 -205.5 -86.5t-82.5 -212.5v-711q0 -125 84.5 -213t208.5 -88h75q124 0 207.5 87t83.5 212v309h-227v94h330v-403q0 -164 -115 -278.5 t-279 -114.5h-75q-164 0 -280 115.5t-116 279.5z" />
<glyph unicode="H" horiz-adv-x="1191" d="M205 0v1466h102v-684h578v684h102v-1466h-102v688h-578v-688h-102z" />
<glyph unicode="I" horiz-adv-x="1028" d="M123 0v94h340v1278h-340v94h782v-94h-340v-1278h340v-94h-782z" />
<glyph unicode="J" horiz-adv-x="1112" d="M143 188l93 43q38 -71 104 -112t149 -41h43q124 0 208.5 88t84.5 213v993h-567v94h670v-1087q0 -164 -116 -279.5t-280 -115.5h-43q-111 0 -203.5 55.5t-142.5 148.5z" />
<glyph unicode="K" horiz-adv-x="1212" d="M205 0v1466h102v-848l643 848h119l-446 -587l446 -879h-106l-404 797l-252 -332v-465h-102z" />
<glyph unicode="L" horiz-adv-x="1048" d="M205 0v1466h102v-1372h619v-94h-721z" />
<glyph unicode="M" horiz-adv-x="1273" d="M205 0v1466h106l326 -983l326 983h106v-1466h-102v1212l-279 -839h-102l-279 839v-1212h-102z" />
<glyph unicode="N" horiz-adv-x="1273" d="M205 0v1466h102l660 -1261v1261h102v-1466h-102l-660 1262v-1262h-102z" />
<glyph unicode="O" horiz-adv-x="1232" d="M184 379v711q0 164 113.5 278.5t277.5 114.5h82q164 0 278 -114.5t114 -278.5v-713q0 -164 -115 -278.5t-279 -114.5h-75q-164 0 -280 115.5t-116 279.5zM287 379q0 -125 84.5 -213t208.5 -88h75q124 0 207.5 87t83.5 212v713q0 126 -82.5 212.5t-206.5 86.5h-82 q-123 0 -205.5 -86.5t-82.5 -212.5v-711z" />
<glyph unicode="P" horiz-adv-x="1212" d="M205 0v1466h465q168 0 283.5 -119.5t115.5 -289.5t-115.5 -290t-283.5 -120h-363v-647h-102zM307 741h363q129 0 213 92t84 224t-84 223.5t-213 91.5h-363v-631z" />
<glyph unicode="Q" horiz-adv-x="1234" d="M184 379v711q0 164 113.5 278.5t277.5 114.5h82q164 0 278 -114.5t114 -278.5v-713q0 -125 -68 -221l152 -146l-64 -73l-154 145q-112 -98 -260 -98h-75q-164 0 -280 115.5t-116 279.5zM287 379q0 -125 84.5 -213t208.5 -88h75q109 0 191 69l-191 183l70 73l182 -178 q39 70 39 152v713q0 126 -82.5 212.5t-206.5 86.5h-82q-123 0 -205.5 -86.5t-82.5 -212.5v-711z" />
<glyph unicode="R" horiz-adv-x="1232" d="M205 0v1466h465q168 0 283.5 -119.5t115.5 -289.5q0 -137 -79 -246t-204 -147l283 -664h-108l-277 647h-377v-647h-102zM307 741h363q129 0 213 92t84 224t-84 223.5t-213 91.5h-363v-631z" />
<glyph unicode="S" horiz-adv-x="1173" d="M164 188l94 45q38 -71 103.5 -113t148.5 -42h98q129 0 214 79.5t85 215.5q0 133 -66 201.5t-249 119.5q-78 21 -132 40.5t-114.5 53t-97 74.5t-60.5 103.5t-24 140.5q0 163 113.5 270t279.5 107h88q111 0 203.5 -55.5t142.5 -149.5l-94 -45q-38 72 -103.5 114t-148.5 42 h-80q-126 0 -212.5 -80t-86.5 -203q0 -57 15.5 -101.5t42 -76.5t71.5 -58.5t94.5 -45t120.5 -38.5q82 -23 137 -44.5t109 -54.5t85 -73.5t50 -100t19 -136.5q0 -175 -113 -284t-281 -109h-106q-111 0 -203.5 55.5t-142.5 148.5z" />
<glyph unicode="T" horiz-adv-x="1028" d="M123 1372v94h782v-94h-340v-1372h-102v1372h-340z" />
<glyph unicode="U" horiz-adv-x="1232" d="M184 379v1087h103v-1087q0 -125 84.5 -213t208.5 -88h75q124 0 207.5 87t83.5 212v1089h103v-1089q0 -164 -115 -278.5t-279 -114.5h-75q-164 0 -280 115.5t-116 279.5z" />
<glyph unicode="V" horiz-adv-x="1183" d="M102 1466h105l385 -1337l385 1337h104l-438 -1466h-102z" />
<glyph unicode="W" horiz-adv-x="1224" d="M123 1466h100l146 -1077q17 -133 28 -295q9 132 37 295l121 705h115l121 -705q27 -154 36 -295q10 146 29 295l145 1077h101l-219 -1466h-107l-137 778q-18 110 -27 221q-10 -123 -26 -221l-137 -778h-107z" />
<glyph unicode="X" horiz-adv-x="1224" d="M123 0l432 733l-432 733h115l374 -637l375 637h115l-432 -733l432 -733h-115l-375 635l-374 -635h-115z" />
<glyph unicode="Y" horiz-adv-x="1183" d="M102 1466h115l375 -637l375 637h114l-438 -743v-723h-102v723z" />
<glyph unicode="Z" horiz-adv-x="1110" d="M164 0v94l680 1278h-680v94h782v-94l-680 -1278h680v-94h-782z" />
<glyph unicode="[" d="M420 -264v1995h489v-95h-387v-1806h387v-94h-489z" />
<glyph unicode="\" d="M276 1690l91 32l686 -1896l-95 -33z" />
<glyph unicode="]" d="M420 -170h387v1806h-387v95h489v-1995h-489v94z" />
<glyph unicode="^" d="M266 918l344 548h111l344 -548h-111l-288 473l-289 -473h-111z" />
<glyph unicode="_" d="M147 0v94h1037v-94h-1037z" />
<glyph unicode="`" d="M451 1772h155l275 -254h-115z" />
<glyph unicode="a" horiz-adv-x="1163" d="M143 303q0 142 93.5 234t246.5 92h394v137q0 125 -76.5 204t-200.5 79h-72q-84 0 -155.5 -42t-108.5 -112l-92 43q50 93 147 149t209 56h72q164 0 271.5 -107.5t107.5 -271.5v-764h-78l-14 125q-84 -73 -168.5 -107t-206.5 -34q-92 0 -165 28t-116 74.5t-65.5 102 t-22.5 114.5zM246 303q0 -37 14 -74.5t42.5 -72t82 -56.5t123.5 -22q160 0 264.5 73.5t104.5 210.5v173h-392q-107 0 -173 -64.5t-66 -167.5z" />
<glyph unicode="b" horiz-adv-x="1224" d="M205 0v1466h102v-469q49 68 124.5 107t166.5 39h47q164 0 279.5 -115.5t115.5 -279.5v-371q0 -164 -113.5 -278.5t-277.5 -114.5h-51q-96 0 -173.5 41t-125.5 114l-16 -139h-78zM307 365q0 -120 84.5 -203.5t206.5 -83.5h51q124 0 206.5 86.5t82.5 212.5v371 q0 125 -84.5 213t-208.5 88h-47q-121 0 -206 -84.5t-85 -204.5v-395z" />
<glyph unicode="c" horiz-adv-x="1118" d="M184 377v371q0 164 115 279.5t279 115.5h47q111 0 203.5 -55.5t142.5 -149.5l-92 -43q-38 71 -104.5 112.5t-149.5 41.5h-47q-124 0 -207.5 -88t-83.5 -213v-371q0 -125 83.5 -212t207.5 -87h51q83 0 149.5 41t104.5 112l92 -43q-50 -93 -142.5 -148.5t-203.5 -55.5h-51 q-164 0 -279 114.5t-115 278.5z" />
<glyph unicode="d" horiz-adv-x="1224" d="M184 377v371q0 164 116 279.5t280 115.5h47q90 0 165 -39t126 -107v469h102v-1466h-78l-16 139q-51 -73 -127.5 -114t-171.5 -41h-52q-164 0 -277.5 114.5t-113.5 278.5zM287 377q0 -126 82.5 -212.5t205.5 -86.5h52q122 0 206.5 83.5t84.5 203.5v395q0 120 -85 204.5 t-206 84.5h-47q-124 0 -208.5 -88t-84.5 -213v-371z" />
<glyph unicode="e" horiz-adv-x="1183" d="M184 377v371q0 164 115 279.5t279 115.5h47q164 0 279.5 -115.5t115.5 -279.5v-232h-733v-139q0 -125 83.5 -212t207.5 -87h75q83 0 149.5 41t104.5 112l92 -43q-50 -93 -142.5 -148.5t-203.5 -55.5h-75q-164 0 -279 114.5t-115 278.5zM287 610h631v138q0 125 -84.5 213 t-208.5 88h-47q-124 0 -207.5 -88t-83.5 -213v-138z" />
<glyph unicode="f" horiz-adv-x="970" d="M143 954v95h185v139q0 140 79 217.5t218 77.5q86 0 156 -45t108 -119l-90 -41q-24 51 -69.5 81t-104.5 30q-195 0 -195 -203v-137h344v-95h-344v-954h-102v954h-185z" />
<glyph unicode="g" horiz-adv-x="1224" d="M184 379v371q0 164 113.5 278.5t277.5 114.5h52q94 0 171 -41.5t128 -114.5l16 139h78v-1169q0 -164 -114.5 -278.5t-278.5 -114.5h-76q-111 0 -203.5 55.5t-142.5 149.5l92 43q38 -71 104.5 -112.5t149.5 -41.5h76q124 0 207.5 87t83.5 212v172q-50 -69 -125 -107 t-166 -38h-47q-164 0 -280 115.5t-116 279.5zM287 379q0 -125 84.5 -213t208.5 -88h47q124 0 207.5 88t83.5 213v383q0 120 -84.5 203.5t-206.5 83.5h-52q-123 0 -205.5 -86.5t-82.5 -212.5v-371z" />
<glyph unicode="h" horiz-adv-x="1224" d="M205 0v1466h102v-469q49 68 124.5 107t166.5 39h47q164 0 279.5 -115.5t115.5 -279.5v-748h-102v748q0 125 -84.5 213t-208.5 88h-47q-121 0 -206 -84.5t-85 -204.5v-760h-102z" />
<glyph unicode="i" horiz-adv-x="999" d="M164 0v94h305v938h-285v94h387v-1032h306v-94h-713zM391 1331v189h180v-189h-180z" />
<glyph unicode="j" horiz-adv-x="847" d="M82 -272l90 41q24 -51 69.5 -81t104.5 -30q84 0 139.5 58.5t55.5 144.5v1171h-346v94h448v-1265q0 -123 -87 -210t-210 -87q-86 0 -156 45t-108 119zM463 1331v189h180v-189h-180z" />
<glyph unicode="k" horiz-adv-x="1183" d="M205 0v1466h102v-968l574 628h139l-367 -399l387 -727h-116l-342 649l-275 -299v-350h-102z" />
<glyph unicode="l" horiz-adv-x="999" d="M164 0v94h305v1278h-285v94h387v-1372h306v-94h-713z" />
<glyph unicode="m" horiz-adv-x="1343" d="M205 0v1126h78l6 -73q31 40 78 65t102 25q72 0 127.5 -35.5t85.5 -97.5q28 62 83.5 97.5t129.5 35.5q109 0 186.5 -77.5t77.5 -186.5v-879h-102v879q0 71 -46 120.5t-116 49.5t-116 -49.5t-46 -120.5v-879h-102v879q0 71 -46 120.5t-116 49.5t-116 -49.5t-46 -120.5v-879 h-102z" />
<glyph unicode="n" horiz-adv-x="1224" d="M205 0v1126h78l16 -141q48 74 126 116t173 42h47q164 0 279.5 -115.5t115.5 -279.5v-748h-102v748q0 125 -84.5 213t-208.5 88h-47q-121 0 -206 -84.5t-85 -204.5v-760h-102z" />
<glyph unicode="o" horiz-adv-x="1204" d="M184 379v371q0 164 113.5 278.5t277.5 114.5h54q164 0 277.5 -114.5t113.5 -278.5v-373q0 -164 -114.5 -278.5t-278.5 -114.5h-47q-164 0 -280 115.5t-116 279.5zM287 379q0 -125 84.5 -213t208.5 -88h47q124 0 207.5 87t83.5 212v373q0 126 -82.5 212.5t-206.5 86.5h-54 q-123 0 -205.5 -86.5t-82.5 -212.5v-371z" />
<glyph unicode="p" horiz-adv-x="1224" d="M205 -420v1546h78l16 -139q48 72 126 114t173 42h51q164 0 277.5 -114.5t113.5 -278.5v-371q0 -164 -115.5 -279.5t-279.5 -115.5h-47q-92 0 -167.5 38t-123.5 107v-549h-102zM307 379q0 -125 83.5 -213t207.5 -88h47q124 0 208.5 88t84.5 213v371q0 126 -82.5 212.5 t-206.5 86.5h-51q-122 0 -206.5 -83.5t-84.5 -203.5v-383z" />
<glyph unicode="q" horiz-adv-x="1224" d="M184 379v371q0 164 113.5 278.5t277.5 114.5h52q94 0 171 -41.5t128 -114.5l16 139h78v-1546h-102v549q-50 -69 -125 -107t-166 -38h-47q-164 0 -280 115.5t-116 279.5zM287 379q0 -125 84.5 -213t208.5 -88h47q124 0 207.5 88t83.5 213v371q0 125 -83.5 212t-207.5 87 h-52q-123 0 -205.5 -86.5t-82.5 -212.5v-371z" />
<glyph unicode="r" horiz-adv-x="1005" d="M205 0v1126h78l16 -141q48 74 126 116t173 42q111 0 203.5 -55.5t142.5 -149.5l-92 -43q-38 71 -104.5 112.5t-149.5 41.5q-121 0 -206 -84.5t-85 -204.5v-760h-102z" />
<glyph unicode="s" horiz-adv-x="1126" d="M164 188l96 45q34 -70 98.5 -112.5t151.5 -42.5h88q136 0 199 60.5t63 148.5q0 37 -4.5 61.5t-21.5 52.5t-48.5 47.5t-87.5 38.5t-137 33q-211 37 -302 108t-91 218q0 131 93 214t276 83h63q105 0 198 -52.5t148 -152.5l-96 -45q-34 64 -96 110t-154 46h-68 q-138 0 -200 -56.5t-62 -148.5q0 -98 64 -149.5t239 -82.5q224 -41 307 -111t83 -214q0 -130 -94.5 -216.5t-274.5 -86.5h-84q-113 0 -205 56t-141 148z" />
<glyph unicode="t" horiz-adv-x="1011" d="M164 954v95h184v417h103v-417h344v-95h-344v-673q0 -86 55 -144.5t139 -58.5q59 0 104.5 29.5t69.5 80.5l90 -41q-38 -74 -108 -118.5t-156 -44.5q-123 0 -210 87t-87 210v673h-184z" />
<glyph unicode="u" horiz-adv-x="1245" d="M205 379v747h102v-747q0 -125 84.5 -213t208.5 -88h47q121 0 206 84.5t85 204.5v759h102v-1126h-77l-17 139q-51 -73 -128 -114t-171 -41h-47q-164 0 -279.5 115.5t-115.5 279.5z" />
<glyph unicode="v" horiz-adv-x="1163" d="M123 1126h106l353 -1005l352 1005h106l-405 -1126h-107z" />
<glyph unicode="w" horiz-adv-x="1200" d="M123 1126h98l121 -757q19 -120 29 -275q13 131 51 275l123 479h110l123 -479q38 -144 51 -275q10 155 29 275l121 757h98l-190 -1126h-105l-131 512q-42 172 -51 242q-9 -70 -51 -242l-131 -512h-105z" />
<glyph unicode="x" horiz-adv-x="1163" d="M123 0l401 563l-401 563h115l344 -483l344 483h114l-401 -563l401 -563h-114l-344 481l-344 -481h-115z" />
<glyph unicode="y" horiz-adv-x="1060" d="M102 1126h103l338 -976l293 976h102l-463 -1546h-102l123 412z" />
<glyph unicode="z" horiz-adv-x="1081" d="M143 0v94l682 938h-661v94h774v-94l-682 -938h682v-94h-795z" />
<glyph unicode="{" d="M403 686v94q90 0 150.5 63.5t60.5 155.5v418q0 129 92.5 221.5t221.5 92.5v-95q-90 0 -150.5 -63.5t-60.5 -155.5v-418q0 -86 -43.5 -156.5t-116.5 -109.5q73 -39 116.5 -110t43.5 -156v-418q0 -92 60.5 -155.5t150.5 -63.5v-94q-129 0 -221.5 92t-92.5 221v418 q0 92 -60.5 155.5t-150.5 63.5z" />
<glyph unicode="|" d="M614 -264v1995h103v-1995h-103z" />
<glyph unicode="}" d="M403 -170q90 0 150.5 63.5t60.5 155.5v418q0 85 43.5 156t116.5 110q-73 39 -116.5 109.5t-43.5 156.5v418q0 92 -60.5 155.5t-150.5 63.5v95q129 0 221.5 -92.5t92.5 -221.5v-418q0 -92 60.5 -155.5t150.5 -63.5v-94q-90 0 -150.5 -63.5t-60.5 -155.5v-418 q0 -129 -92.5 -221t-221.5 -92v94z" />
<glyph unicode="~" d="M166 999q55 70 136 110t175 40q120 0 223 -70q75 -53 168 -53q134 0 219 98l76 -63q-55 -61 -131.5 -95t-163.5 -34q-122 0 -223 69q-77 54 -168 54q-71 0 -132 -31t-101 -86z" />
<glyph unicode="&#xa1;" horiz-adv-x="610" d="M205 1257v209h201v-209h-201zM254 0v1063h102v-1063h-102z" />
<glyph unicode="&#xa2;" d="M270 549v371q0 157 106 270.5t261 122.5v153h102v-153q102 -6 187 -61t131 -142l-92 -43q-38 71 -104.5 112.5t-149.5 41.5h-47q-124 0 -207.5 -88t-83.5 -213v-371q0 -125 83.5 -212t207.5 -87h51q83 0 149.5 41t104.5 112l92 -43q-48 -89 -133.5 -143.5t-188.5 -60.5 v-156h-102v156q-156 11 -261.5 123t-105.5 270z" />
<glyph unicode="&#xa3;" d="M205 0v94q84 0 139 58.5t55 144.5v389h-184v94h184v406q0 123 87 210t210 87q86 0 156.5 -45t108.5 -119l-91 -41q-24 51 -69.5 81t-104.5 30q-84 0 -139 -58.5t-55 -144.5v-406h246v-94h-246v-389q0 -119 -84 -203h360q83 0 149.5 41.5t104.5 112.5l92 -43 q-50 -94 -142.5 -149.5t-203.5 -55.5h-573z" />
<glyph unicode="&#xa4;" d="M180 322l146 143q-93 121 -93 268q0 145 93 266l-146 146l74 74l145 -146q119 92 267 92t266 -94l143 146l74 -74l-145 -144q94 -118 94 -266q0 -147 -92 -266l145 -145l-74 -74l-145 145q-119 -92 -266 -92q-150 0 -269 92l-143 -145zM336 733q0 -137 97 -237.5 t233 -100.5t232.5 100.5t96.5 237.5t-96.5 237.5t-232.5 100.5t-233 -100.5t-97 -237.5z" />
<glyph unicode="&#xa5;" d="M176 1466h115l375 -637l374 637h115l-414 -700h308v-94h-332v-205h332v-94h-332v-373h-103v373h-331v94h331v205h-331v94h305z" />
<glyph unicode="&#xa6;" d="M614 -264v874h103v-874h-103zM614 856v875h103v-875h-103z" />
<glyph unicode="&#xa7;" d="M287 -231l92 43q38 -71 104.5 -112.5t149.5 -41.5h57q78 0 126 55.5t48 136.5q0 75 -59 134l-420 419q-92 92 -92 226q0 106 62 189t161 114l-61 61q-93 93 -93 203q0 119 79.5 203t197.5 84h57q111 0 203.5 -55.5t142.5 -149.5l-92 -43q-38 71 -104.5 112.5t-149.5 41.5 h-57q-78 0 -126 -55.5t-48 -137.5q0 -74 59 -133l420 -420q92 -92 92 -225q0 -106 -62.5 -189.5t-160.5 -113.5l61 -62q93 -93 93 -203q0 -119 -79.5 -202.5t-197.5 -83.5h-57q-111 0 -203.5 55.5t-142.5 149.5zM395 629q0 -96 60 -156l276 -278q87 6 145 69.5t58 153.5 q0 95 -60 155l-278 279q-87 -6 -144 -70t-57 -153z" />
<glyph unicode="&#xa8;" d="M373 1393v188h180v-188h-180zM778 1393v188h180v-188h-180z" />
<glyph unicode="&#xa9;" d="M147 580v510q0 164 114 278.5t278 114.5h254q164 0 277.5 -114.5t113.5 -278.5v-510q0 -164 -116 -280t-280 -116h-245q-164 0 -280 116t-116 280zM250 580q0 -125 84.5 -213t208.5 -88h245q124 0 208.5 88t84.5 213v510q0 126 -82.5 212.5t-205.5 86.5h-254 q-124 0 -206.5 -86.5t-82.5 -212.5v-510zM420 713v245q0 86 60.5 146.5t146.5 60.5h78q61 0 112 -32.5t76 -85.5l-90 -48q-11 31 -38 51.5t-60 20.5h-78q-45 0 -75 -33t-30 -80v-245q0 -47 30 -80t75 -33h78q33 0 60 20.5t38 51.5l90 -47q-25 -53 -76 -86t-112 -33h-78 q-86 0 -146.5 60.5t-60.5 146.5z" />
<glyph unicode="&#xaa;" horiz-adv-x="987" d="M164 360v95h659v-95h-659zM164 842q0 110 74 177.5t184 67.5h299v111q0 82 -54.5 136.5t-136.5 54.5h-90q-55 0 -99.5 -28t-68.5 -75l-90 45q37 69 106.5 110.5t151.5 41.5h90q122 0 207.5 -82t85.5 -203v-618h-57l-27 100q-111 -111 -270 -111q-138 0 -221.5 75 t-83.5 198zM266 840q0 -81 60.5 -128.5t142.5 -47.5q101 0 176.5 55t75.5 131v143h-301q-66 0 -110 -43t-44 -110z" />
<glyph unicode="&#xab;" horiz-adv-x="1142" d="M184 569l246 408h102l-233 -408l233 -407h-102zM610 569l246 408h102l-233 -408l233 -407h-102z" />
<glyph unicode="&#xac;" d="M209 684v94h913v-319h-102v225h-811z" />
<glyph unicode="&#xad;" d="M352 516v94h625v-94h-625z" />
<glyph unicode="&#xae;" d="M178 760v330q0 164 113.5 278.5t277.5 114.5h193q164 0 277.5 -114.5t113.5 -278.5v-330q0 -164 -115.5 -279.5t-279.5 -115.5h-185q-164 0 -279.5 115.5t-115.5 279.5zM281 760q0 -125 84 -213t208 -88h185q124 0 208.5 88t84.5 213v330q0 126 -82.5 212.5t-206.5 86.5 h-193q-123 0 -205.5 -86.5t-82.5 -212.5v-330zM469 618h102v248h121l88 -248h103l-97 269q44 24 70.5 66.5t26.5 93.5q0 75 -54 128.5t-129 53.5h-231v-611zM571 961v174h129q36 0 58 -25t22 -63q0 -37 -22 -61.5t-58 -24.5h-129z" />
<glyph unicode="&#xaf;" d="M352 1466v95h627v-95h-627z" />
<glyph unicode="&#xb0;" d="M434 1239q0 97 66.5 164t163.5 67t164 -67t67 -164t-67 -163t-164 -66t-163.5 66t-66.5 163zM537 1239q0 -61 34 -98t93 -37t94 37t35 98t-35 99t-94 38t-93 -38t-34 -99z" />
<glyph unicode="&#xb1;" d="M291 0v94h749v-94h-749zM311 598v94h303v357h103v-357h303v-94h-303v-358h-103v358h-303z" />
<glyph unicode="&#xb2;" d="M424 733v94l354 355q27 27 27 78q0 46 -30 79t-75 33h-84q-36 0 -63.5 -22.5t-36.5 -57.5l-92 45q24 58 76 93.5t116 35.5h84q86 0 146.5 -60t60.5 -146q0 -85 -61 -146l-287 -287h348v-94h-483z" />
<glyph unicode="&#xb3;" d="M420 862l92 45q9 -35 36.5 -57.5t63.5 -22.5h90q45 0 75 33t30 80v59q0 47 -30 80t-75 33h-96v94l168 166h-354v94h489v-94l-174 -172q74 -12 124 -68.5t50 -132.5v-59q0 -86 -60.5 -146.5t-146.5 -60.5h-90q-64 0 -116 35.5t-76 93.5z" />
<glyph unicode="&#xb4;" d="M451 1518l274 254h156l-316 -254h-114z" />
<glyph unicode="&#xb5;" d="M248 0v1466h102v-747q0 -125 84.5 -213t208.5 -88h47q121 0 206 84.5t85 204.5v759h102v-1126h-77l-17 139q-51 -73 -128 -114t-171 -41h-47q-91 0 -166.5 38.5t-126.5 106.5v-469h-102z" />
<glyph unicode="&#xb6;" d="M209 1073q0 164 113.5 278.5t277.5 114.5h522v-1466h-102v1372h-252v-1372h-102v680h-64q-164 0 -278.5 114.5t-114.5 278.5zM311 1073q0 -125 83.5 -212t207.5 -87h64v598h-66q-124 0 -206.5 -86.5t-82.5 -212.5z" />
<glyph unicode="&#xb7;" d="M502 733q0 67 48 115.5t116 48.5q67 0 115 -48t48 -116t-48 -116t-115 -48q-68 0 -116 48.5t-48 115.5z" />
<glyph unicode="&#xb8;" d="M520 -344l53 53q28 -31 76 -31q38 0 59 22t21 54q0 33 -16 53.5t-47 20.5q-33 0 -54 -25l-55 56l51 164h80l-45 -125q8 4 23 4q64 0 104.5 -42t40.5 -106q0 -63 -45 -106t-117 -43q-78 0 -129 51z" />
<glyph unicode="&#xb9;" d="M422 1272l194 194h103v-639h190v-94h-483v94h190v496l-122 -123z" />
<glyph unicode="&#xba;" horiz-adv-x="987" d="M164 360v95h659v-95h-659zM164 862v328q0 122 86 207.5t207 85.5h73q122 0 207.5 -85.5t85.5 -207.5v-328q0 -122 -85.5 -207.5t-207.5 -85.5h-73q-121 0 -207 85.5t-86 207.5zM266 862q0 -82 55 -140t136 -58h73q81 0 136 58t55 140v328q0 83 -55 141t-136 58h-73 q-81 0 -136 -58t-55 -141v-328z" />
<glyph unicode="&#xbb;" horiz-adv-x="1142" d="M184 162l234 407l-234 408h103l245 -408l-245 -407h-103zM610 162l234 407l-234 408h103l245 -408l-245 -407h-103z" />
<glyph unicode="&#xbc;" d="M61 1210l195 195h102v-512h172v-94h-446v94h172v369l-123 -123zM231 0l920 1466h117l-920 -1466h-117zM774 188v95l254 405h117v-405h96v-95h-96v-127h-103v127h-268zM889 283h153v243z" />
<glyph unicode="&#xbd;" d="M35 1210l194 195h103v-512h172v-94h-447v94h172v369l-123 -123zM205 0l919 1466h117l-919 -1466h-117zM854 61v95l307 260q33 30 33 65q0 38 -27 65t-65 27h-53q-33 0 -60.5 -20t-38.5 -51l-90 45q25 54 76.5 87.5t112.5 33.5h61q76 0 131 -55t55 -132q0 -74 -79 -141 l-216 -184h295v-95h-442z" />
<glyph unicode="&#xbe;" d="M76 928l92 45q9 -35 36.5 -57.5t63.5 -22.5h37q42 0 69 29.5t27 74.5v21q0 43 -27 72.5t-69 29.5h-74v94l111 97h-258v94h410v-94l-138 -109q64 -15 106 -65.5t42 -118.5v-21q0 -83 -58 -140.5t-141 -57.5h-37q-64 0 -116 35.5t-76 93.5zM193 0l919 1466h117l-920 -1466 h-116zM788 188v95l254 405h117v-405h96v-95h-96v-127h-102v127h-269zM903 283h154v243z" />
<glyph unicode="&#xbf;" horiz-adv-x="1339" d="M225 350q0 82 13.5 139t50.5 107t86.5 89.5t136.5 94.5q81 51 110 94.5t29 114.5v105h103v-103q0 -59 -15.5 -105.5t-48 -82t-60.5 -56t-75 -49.5q-134 -84 -180.5 -156t-46.5 -192q0 -123 79 -197.5t205 -74.5h136q83 0 149 41t104 112l93 -43q-50 -93 -142.5 -148.5 t-203.5 -55.5h-127q-172 0 -284 100t-112 266zM602 1257v209h201v-209h-201z" />
<glyph unicode="&#xc0;" horiz-adv-x="1163" d="M92 0l438 1466h103l438 -1466h-104l-113 389h-547l-110 -389h-105zM209 1935h156l274 -254h-115zM336 483h491l-245 854z" />
<glyph unicode="&#xc1;" horiz-adv-x="1163" d="M92 0l438 1466h103l438 -1466h-104l-113 389h-547l-110 -389h-105zM336 483h491l-245 854zM524 1681l275 254h155l-315 -254h-115z" />
<glyph unicode="&#xc2;" horiz-adv-x="1163" d="M92 0l438 1466h103l438 -1466h-104l-113 389h-547l-110 -389h-105zM238 1681l274 254h139l275 -254h-115l-229 185l-230 -185h-114zM336 483h491l-245 854z" />
<glyph unicode="&#xc3;" horiz-adv-x="1163" d="M92 0l438 1466h103l438 -1466h-104l-113 389h-547l-110 -389h-105zM197 1737q93 100 229 100q107 0 184 -59q54 -45 129 -45q94 0 154 67l76 -61q-44 -47 -104 -74t-126 -27q-103 0 -184 62q-52 43 -129 43q-93 0 -154 -68zM336 483h491l-245 854z" />
<glyph unicode="&#xc4;" horiz-adv-x="1163" d="M92 0l438 1466h103l438 -1466h-104l-113 389h-547l-110 -389h-105zM289 1597v189h180v-189h-180zM336 483h491l-245 854zM694 1597v189h180v-189h-180z" />
<glyph unicode="&#xc5;" horiz-adv-x="1163" d="M92 0l438 1466h103l438 -1466h-104l-113 389h-547l-110 -389h-105zM336 483h491l-245 854zM391 1821q0 78 56.5 134t134.5 56t134 -56t56 -134t-56 -134.5t-134 -56.5t-134.5 56.5t-56.5 134.5zM494 1821q0 -41 24.5 -69t63.5 -28t63.5 28t24.5 69t-24.5 68.5t-63.5 27.5 t-63.5 -27.5t-24.5 -68.5z" />
<glyph unicode="&#xc6;" horiz-adv-x="1658" d="M123 0l631 1466h762v-94h-517v-590h334v-94h-334v-594h514v-94h-616v389h-506l-166 -389h-102zM432 483h465v889h-82z" />
<glyph unicode="&#xc7;" horiz-adv-x="1191" d="M184 379v711q0 164 113.5 278.5t277.5 114.5h127q111 0 204 -56t143 -149l-93 -43q-38 71 -104.5 112.5t-149.5 41.5h-127q-123 0 -205.5 -86.5t-82.5 -212.5v-711q0 -125 84.5 -213t208.5 -88h122q83 0 149.5 41t104.5 112l93 -43q-50 -93 -143 -148.5t-204 -55.5h-122 q-164 0 -280 115.5t-116 279.5zM524 -344l54 53q28 -31 75 -31q38 0 59 22t21 54q0 33 -16 53.5t-47 20.5q-33 0 -54 -25l-55 56l51 164h80l-45 -125q8 4 23 4q64 0 104.5 -42t40.5 -106q0 -63 -45 -106t-117 -43q-78 0 -129 51z" />
<glyph unicode="&#xc8;" horiz-adv-x="1130" d="M205 0v1466h782v-94h-680v-590h500v-94h-500v-594h680v-94h-782zM281 1935h155l275 -254h-115z" />
<glyph unicode="&#xc9;" horiz-adv-x="1130" d="M205 0v1466h782v-94h-680v-590h500v-94h-500v-594h680v-94h-782zM481 1681l275 254h155l-315 -254h-115z" />
<glyph unicode="&#xca;" horiz-adv-x="1130" d="M205 0v1466h782v-94h-680v-590h500v-94h-500v-594h680v-94h-782zM252 1681l274 254h140l274 -254h-115l-229 185l-229 -185h-115z" />
<glyph unicode="&#xcb;" horiz-adv-x="1130" d="M205 0v1466h782v-94h-680v-590h500v-94h-500v-594h680v-94h-782zM303 1638v189h180v-189h-180zM709 1638v189h180v-189h-180z" />
<glyph unicode="&#xcc;" horiz-adv-x="1028" d="M123 0v94h340v1278h-340v94h782v-94h-340v-1278h340v-94h-782zM141 1935h156l274 -254h-114z" />
<glyph unicode="&#xcd;" horiz-adv-x="1028" d="M123 0v94h340v1278h-340v94h782v-94h-340v-1278h340v-94h-782zM457 1681l274 254h156l-316 -254h-114z" />
<glyph unicode="&#xce;" horiz-adv-x="1028" d="M123 0v94h340v1278h-340v94h782v-94h-340v-1278h340v-94h-782zM170 1681l274 254h140l274 -254h-115l-229 185l-229 -185h-115z" />
<glyph unicode="&#xcf;" horiz-adv-x="1028" d="M123 0v94h340v1278h-340v94h782v-94h-340v-1278h340v-94h-782zM221 1597v189h180v-189h-180zM627 1597v189h180v-189h-180z" />
<glyph unicode="&#xd0;" d="M147 688v94h244v684h402q164 0 277.5 -114.5t113.5 -278.5v-680q0 -164 -114.5 -278.5t-278.5 -114.5h-400v688h-244zM494 94h297q124 0 207 87t83 212v680q0 126 -82.5 212.5t-205.5 86.5h-299v-590h223v-94h-223v-594z" />
<glyph unicode="&#xd1;" horiz-adv-x="1273" d="M205 0v1466h102l660 -1261v1261h102v-1466h-102l-660 1262v-1262h-102zM252 1735q93 100 229 100q108 0 185 -59q54 -45 129 -45q93 0 153 67l76 -61q-94 -101 -229 -101q-104 0 -185 62q-52 43 -129 43q-92 0 -153 -68z" />
<glyph unicode="&#xd2;" horiz-adv-x="1232" d="M184 379v711q0 164 113.5 278.5t277.5 114.5h82q164 0 278 -114.5t114 -278.5v-713q0 -164 -115 -278.5t-279 -114.5h-75q-164 0 -280 115.5t-116 279.5zM244 1935h155l275 -254h-115zM287 379q0 -125 84.5 -213t208.5 -88h75q124 0 207.5 87t83.5 212v713 q0 126 -82.5 212.5t-206.5 86.5h-82q-123 0 -205.5 -86.5t-82.5 -212.5v-711z" />
<glyph unicode="&#xd3;" horiz-adv-x="1232" d="M184 379v711q0 164 113.5 278.5t277.5 114.5h82q164 0 278 -114.5t114 -278.5v-713q0 -164 -115 -278.5t-279 -114.5h-75q-164 0 -280 115.5t-116 279.5zM287 379q0 -125 84.5 -213t208.5 -88h75q124 0 207.5 87t83.5 212v713q0 126 -82.5 212.5t-206.5 86.5h-82 q-123 0 -205.5 -86.5t-82.5 -212.5v-711zM559 1681l275 254h155l-315 -254h-115z" />
<glyph unicode="&#xd4;" horiz-adv-x="1232" d="M184 379v711q0 164 113.5 278.5t277.5 114.5h82q164 0 278 -114.5t114 -278.5v-713q0 -164 -115 -278.5t-279 -114.5h-75q-164 0 -280 115.5t-116 279.5zM272 1681l275 254h139l275 -254h-115l-230 185l-229 -185h-115zM287 379q0 -125 84.5 -213t208.5 -88h75 q124 0 207.5 87t83.5 212v713q0 126 -82.5 212.5t-206.5 86.5h-82q-123 0 -205.5 -86.5t-82.5 -212.5v-711z" />
<glyph unicode="&#xd5;" horiz-adv-x="1232" d="M184 379v711q0 164 113.5 278.5t277.5 114.5h82q164 0 278 -114.5t114 -278.5v-713q0 -164 -115 -278.5t-279 -114.5h-75q-164 0 -280 115.5t-116 279.5zM231 1737q44 47 104 73.5t126 26.5q107 0 184 -59q54 -45 129 -45q94 0 154 67l76 -61q-44 -47 -104 -74t-126 -27 q-103 0 -184 62q-52 43 -129 43q-93 0 -154 -68zM287 379q0 -125 84.5 -213t208.5 -88h75q124 0 207.5 87t83.5 212v713q0 126 -82.5 212.5t-206.5 86.5h-82q-123 0 -205.5 -86.5t-82.5 -212.5v-711z" />
<glyph unicode="&#xd6;" horiz-adv-x="1232" d="M184 379v711q0 164 113.5 278.5t277.5 114.5h82q164 0 278 -114.5t114 -278.5v-713q0 -164 -115 -278.5t-279 -114.5h-75q-164 0 -280 115.5t-116 279.5zM287 379q0 -125 84.5 -213t208.5 -88h75q124 0 207.5 87t83.5 212v713q0 126 -82.5 212.5t-206.5 86.5h-82 q-123 0 -205.5 -86.5t-82.5 -212.5v-711zM324 1614v188h180v-188h-180zM729 1614v188h180v-188h-180z" />
<glyph unicode="&#xd7;" d="M147 72l449 491l-449 492l72 71l447 -489l446 489l72 -71l-451 -492l451 -491l-72 -72l-446 487l-447 -487z" />
<glyph unicode="&#xd8;" horiz-adv-x="1232" d="M184 377v713q0 164 113.5 278.5t277.5 114.5h82q164 0 278 -114.5t114 -278.5v-711q0 -164 -116 -279.5t-280 -115.5h-75q-164 0 -279 114.5t-115 278.5zM287 377q0 -73 32 -139l531 1077q-84 74 -193 74h-82q-123 0 -205.5 -86.5t-82.5 -212.5v-713zM381 154 q82 -76 197 -76h75q124 0 208.5 88t84.5 213v711q0 73 -33 141z" />
<glyph unicode="&#xd9;" horiz-adv-x="1232" d="M184 379v1087h103v-1087q0 -125 84.5 -213t208.5 -88h75q124 0 207.5 87t83.5 212v1089h103v-1089q0 -164 -115 -278.5t-279 -114.5h-75q-164 0 -280 115.5t-116 279.5zM401 1935h156l274 -254h-114z" />
<glyph unicode="&#xda;" horiz-adv-x="1232" d="M184 379v1087h103v-1087q0 -125 84.5 -213t208.5 -88h75q124 0 207.5 87t83.5 212v1089h103v-1089q0 -164 -115 -278.5t-279 -114.5h-75q-164 0 -280 115.5t-116 279.5zM401 1681l275 254h155l-315 -254h-115z" />
<glyph unicode="&#xdb;" horiz-adv-x="1232" d="M184 379v1087h103v-1087q0 -125 84.5 -213t208.5 -88h75q124 0 207.5 87t83.5 212v1089h103v-1089q0 -164 -115 -278.5t-279 -114.5h-75q-164 0 -280 115.5t-116 279.5zM272 1681l275 254h139l275 -254h-115l-230 185l-229 -185h-115z" />
<glyph unicode="&#xdc;" horiz-adv-x="1232" d="M184 379v1087h103v-1087q0 -125 84.5 -213t208.5 -88h75q124 0 207.5 87t83.5 212v1089h103v-1089q0 -164 -115 -278.5t-279 -114.5h-75q-164 0 -280 115.5t-116 279.5zM324 1597v189h180v-189h-180zM729 1597v189h180v-189h-180z" />
<glyph unicode="&#xdd;" horiz-adv-x="1183" d="M102 1466h115l375 -637l375 637h114l-438 -743v-723h-102v723zM377 1681l274 254h156l-315 -254h-115z" />
<glyph unicode="&#xde;" d="M147 0v1466h103v-340h543q164 0 277.5 -114.5t113.5 -278.5t-114.5 -278.5t-278.5 -114.5h-541v-340h-103zM250 434h541q124 0 207 87t83 212q0 126 -82.5 212.5t-205.5 86.5h-543v-598z" />
<glyph unicode="&#xdf;" horiz-adv-x="1130" d="M184 0v1163q0 129 89.5 224.5t215.5 95.5h127q128 0 219 -91t91 -218q0 -81 -40 -148t-108 -106q85 -33 137 -105.5t52 -165.5v-340q0 -127 -91 -218t-219 -91h-98v94h98q88 0 147.5 62.5t59.5 152.5v340q0 90 -59.5 152.5t-147.5 62.5h-96v94h55q88 0 147.5 63t59.5 153 t-59.5 152.5t-147.5 62.5h-127q-87 0 -144.5 -67t-57.5 -159v-1163h-103z" />
<glyph unicode="&#xe0;" horiz-adv-x="1163" d="M143 303q0 142 93.5 234t246.5 92h394v137q0 125 -76.5 204t-200.5 79h-72q-84 0 -155.5 -42t-108.5 -112l-92 43q50 93 147 149t209 56h72q164 0 271.5 -107.5t107.5 -271.5v-764h-78l-14 125q-84 -73 -168.5 -107t-206.5 -34q-92 0 -165 28t-116 74.5t-65.5 102 t-22.5 114.5zM188 1595h156l274 -254h-114zM246 303q0 -37 14 -74.5t42.5 -72t82 -56.5t123.5 -22q160 0 264.5 73.5t104.5 210.5v173h-392q-107 0 -173 -64.5t-66 -167.5z" />
<glyph unicode="&#xe1;" horiz-adv-x="1163" d="M143 303q0 142 93.5 234t246.5 92h394v137q0 125 -76.5 204t-200.5 79h-72q-84 0 -155.5 -42t-108.5 -112l-92 43q50 93 147 149t209 56h72q164 0 271.5 -107.5t107.5 -271.5v-764h-78l-14 125q-84 -73 -168.5 -107t-206.5 -34q-92 0 -165 28t-116 74.5t-65.5 102 t-22.5 114.5zM246 303q0 -37 14 -74.5t42.5 -72t82 -56.5t123.5 -22q160 0 264.5 73.5t104.5 210.5v173h-392q-107 0 -173 -64.5t-66 -167.5zM504 1341l274 254h156l-316 -254h-114z" />
<glyph unicode="&#xe2;" horiz-adv-x="1163" d="M143 303q0 142 93.5 234t246.5 92h394v137q0 125 -76.5 204t-200.5 79h-72q-84 0 -155.5 -42t-108.5 -112l-92 43q50 93 147 149t209 56h72q164 0 271.5 -107.5t107.5 -271.5v-764h-78l-14 125q-84 -73 -168.5 -107t-206.5 -34q-92 0 -165 28t-116 74.5t-65.5 102 t-22.5 114.5zM217 1341l275 254h139l274 -254h-114l-230 185l-229 -185h-115zM246 303q0 -37 14 -74.5t42.5 -72t82 -56.5t123.5 -22q160 0 264.5 73.5t104.5 210.5v173h-392q-107 0 -173 -64.5t-66 -167.5z" />
<glyph unicode="&#xe3;" horiz-adv-x="1163" d="M143 303q0 142 93.5 234t246.5 92h394v137q0 125 -76.5 204t-200.5 79h-72q-84 0 -155.5 -42t-108.5 -112l-92 43q50 93 147 149t209 56h72q164 0 271.5 -107.5t107.5 -271.5v-764h-78l-14 125q-84 -73 -168.5 -107t-206.5 -34q-92 0 -165 28t-116 74.5t-65.5 102 t-22.5 114.5zM176 1413q44 47 104 73.5t126 26.5q107 0 184 -59q54 -45 129 -45q92 0 153 68l76 -62q-93 -100 -229 -100q-104 0 -184 61q-52 43 -129 43q-94 0 -154 -67zM246 303q0 -37 14 -74.5t42.5 -72t82 -56.5t123.5 -22q160 0 264.5 73.5t104.5 210.5v173h-392 q-107 0 -173 -64.5t-66 -167.5z" />
<glyph unicode="&#xe4;" horiz-adv-x="1163" d="M143 303q0 142 93.5 234t246.5 92h394v137q0 125 -76.5 204t-200.5 79h-72q-84 0 -155.5 -42t-108.5 -112l-92 43q50 93 147 149t209 56h72q164 0 271.5 -107.5t107.5 -271.5v-764h-78l-14 125q-84 -73 -168.5 -107t-206.5 -34q-92 0 -165 28t-116 74.5t-65.5 102 t-22.5 114.5zM246 303q0 -37 14 -74.5t42.5 -72t82 -56.5t123.5 -22q160 0 264.5 73.5t104.5 210.5v173h-392q-107 0 -173 -64.5t-66 -167.5zM268 1294v189h181v-189h-181zM674 1294v189h180v-189h-180z" />
<glyph unicode="&#xe5;" horiz-adv-x="1163" d="M143 303q0 142 93.5 234t246.5 92h394v137q0 125 -76.5 204t-200.5 79h-72q-84 0 -155.5 -42t-108.5 -112l-92 43q50 93 147 149t209 56h72q164 0 271.5 -107.5t107.5 -271.5v-764h-78l-14 125q-84 -73 -168.5 -107t-206.5 -34q-92 0 -165 28t-116 74.5t-65.5 102 t-22.5 114.5zM246 303q0 -37 14 -74.5t42.5 -72t82 -56.5t123.5 -22q160 0 264.5 73.5t104.5 210.5v173h-392q-107 0 -173 -64.5t-66 -167.5zM371 1481q0 78 56 134t134 56t134.5 -56t56.5 -134t-56.5 -134.5t-134.5 -56.5t-134 56.5t-56 134.5zM473 1481q0 -41 24.5 -69 t63.5 -28t63.5 28t24.5 69t-24.5 68.5t-63.5 27.5t-63.5 -27.5t-24.5 -68.5z" />
<glyph unicode="&#xe6;" horiz-adv-x="1757" d="M143 301q0 64 18.5 119.5t56.5 101.5t103 72.5t150 26.5h334v143q0 125 -76.5 205t-200.5 80q-84 0 -155.5 -42t-108.5 -112l-92 43q50 93 147 149t209 56q116 0 204 -56t128 -153q43 98 133 153.5t205 55.5q164 0 279.5 -115.5t115.5 -279.5v-222h-686v-161 q0 -124 87 -205.5t218 -81.5q186 0 269 153l92 -43q-51 -97 -145 -150.5t-216 -53.5q-118 0 -214 54t-148 150q-117 -204 -389 -204q-85 0 -148.5 27.5t-99.5 74t-53 100.5t-17 115zM246 305q0 -227 221 -227q151 0 244.5 75t93.5 209v164h-334q-108 0 -166.5 -57 t-58.5 -164zM907 621h584v127q0 125 -84.5 213t-208.5 88q-121 0 -206 -83t-85 -202v-143z" />
<glyph unicode="&#xe7;" horiz-adv-x="1118" d="M184 377v371q0 164 115 279.5t279 115.5h47q111 0 203.5 -55.5t142.5 -149.5l-92 -43q-38 71 -104.5 112.5t-149.5 41.5h-47q-124 0 -207.5 -88t-83.5 -213v-371q0 -125 83.5 -212t207.5 -87h51q83 0 149.5 41t104.5 112l92 -43q-50 -93 -142.5 -148.5t-203.5 -55.5h-51 q-164 0 -279 114.5t-115 278.5zM487 -344l54 53q28 -31 75 -31q38 0 59 22t21 54q0 33 -16 53.5t-47 20.5q-32 0 -53 -25l-56 56l51 164h80l-45 -125q8 4 23 4q64 0 104.5 -42t40.5 -106q0 -63 -45 -106t-117 -43q-78 0 -129 51z" />
<glyph unicode="&#xe8;" horiz-adv-x="1183" d="M184 377v371q0 164 115 279.5t279 115.5h47q164 0 279.5 -115.5t115.5 -279.5v-232h-733v-139q0 -125 83.5 -212t207.5 -87h75q83 0 149.5 41t104.5 112l92 -43q-50 -93 -142.5 -148.5t-203.5 -55.5h-75q-164 0 -279 114.5t-115 278.5zM229 1595h156l274 -254h-114z M287 610h631v138q0 125 -84.5 213t-208.5 88h-47q-124 0 -207.5 -88t-83.5 -213v-138z" />
<glyph unicode="&#xe9;" horiz-adv-x="1183" d="M184 377v371q0 164 115 279.5t279 115.5h47q164 0 279.5 -115.5t115.5 -279.5v-232h-733v-139q0 -125 83.5 -212t207.5 -87h75q83 0 149.5 41t104.5 112l92 -43q-50 -93 -142.5 -148.5t-203.5 -55.5h-75q-164 0 -279 114.5t-115 278.5zM287 610h631v138q0 125 -84.5 213 t-208.5 88h-47q-124 0 -207.5 -88t-83.5 -213v-138zM545 1341l274 254h156l-316 -254h-114z" />
<glyph unicode="&#xea;" horiz-adv-x="1183" d="M184 377v371q0 164 115 279.5t279 115.5h47q164 0 279.5 -115.5t115.5 -279.5v-232h-733v-139q0 -125 83.5 -212t207.5 -87h75q83 0 149.5 41t104.5 112l92 -43q-50 -93 -142.5 -148.5t-203.5 -55.5h-75q-164 0 -279 114.5t-115 278.5zM258 1341l274 254h140l274 -254 h-115l-229 185l-229 -185h-115zM287 610h631v138q0 125 -84.5 213t-208.5 88h-47q-124 0 -207.5 -88t-83.5 -213v-138z" />
<glyph unicode="&#xeb;" horiz-adv-x="1183" d="M184 377v371q0 164 115 279.5t279 115.5h47q164 0 279.5 -115.5t115.5 -279.5v-232h-733v-139q0 -125 83.5 -212t207.5 -87h75q83 0 149.5 41t104.5 112l92 -43q-50 -93 -142.5 -148.5t-203.5 -55.5h-75q-164 0 -279 114.5t-115 278.5zM287 610h631v138q0 125 -84.5 213 t-208.5 88h-47q-124 0 -207.5 -88t-83.5 -213v-138zM309 1298v189h180v-189h-180zM715 1298v189h180v-189h-180z" />
<glyph unicode="&#xec;" horiz-adv-x="999" d="M147 1595h156l275 -254h-115zM164 0v94h305v938h-285v94h387v-1032h306v-94h-713z" />
<glyph unicode="&#xed;" horiz-adv-x="999" d="M164 0v94h305v938h-285v94h387v-1032h306v-94h-713zM463 1341l274 254h156l-315 -254h-115z" />
<glyph unicode="&#xee;" horiz-adv-x="999" d="M164 0v94h305v938h-285v94h387v-1032h306v-94h-713zM176 1341l275 254h139l274 -254h-114l-230 185l-229 -185h-115z" />
<glyph unicode="&#xef;" horiz-adv-x="999" d="M164 0v94h305v938h-285v94h387v-1032h306v-94h-713zM227 1335v189h181v-189h-181zM633 1335v189h180v-189h-180z" />
<glyph unicode="&#xf0;" d="M238 379v207q0 164 113.5 278.5t277.5 114.5h53q86 0 154 -35l-125 240h-299v94h247l-98 188h111l96 -188h197v-94h-150l127 -248q44 -87 67 -137.5t43.5 -127t20.5 -147.5v-147q0 -164 -114.5 -278.5t-278.5 -114.5h-47q-164 0 -279.5 115.5t-115.5 279.5zM340 379 q0 -125 84.5 -213t208.5 -88h47q124 0 207.5 87t83.5 212v209q0 126 -82.5 212.5t-206.5 86.5h-53q-124 0 -206.5 -86.5t-82.5 -212.5v-207z" />
<glyph unicode="&#xf1;" horiz-adv-x="1224" d="M205 0v1126h78l16 -141q48 74 126 116t173 42h47q164 0 279.5 -115.5t115.5 -279.5v-748h-102v748q0 125 -84.5 213t-208.5 88h-47q-121 0 -206 -84.5t-85 -204.5v-760h-102zM238 1409q93 100 229 100q107 0 184 -59q54 -45 129 -45q93 0 154 68l76 -62 q-44 -47 -104 -73.5t-126 -26.5q-104 0 -184 61q-52 43 -129 43q-94 0 -154 -67z" />
<glyph unicode="&#xf2;" horiz-adv-x="1204" d="M184 379v371q0 164 113.5 278.5t277.5 114.5h54q164 0 277.5 -114.5t113.5 -278.5v-373q0 -164 -114.5 -278.5t-278.5 -114.5h-47q-164 0 -280 115.5t-116 279.5zM229 1595h156l274 -254h-114zM287 379q0 -125 84.5 -213t208.5 -88h47q124 0 207.5 87t83.5 212v373 q0 126 -82.5 212.5t-206.5 86.5h-54q-123 0 -205.5 -86.5t-82.5 -212.5v-371z" />
<glyph unicode="&#xf3;" horiz-adv-x="1204" d="M184 379v371q0 164 113.5 278.5t277.5 114.5h54q164 0 277.5 -114.5t113.5 -278.5v-373q0 -164 -114.5 -278.5t-278.5 -114.5h-47q-164 0 -280 115.5t-116 279.5zM287 379q0 -125 84.5 -213t208.5 -88h47q124 0 207.5 87t83.5 212v373q0 126 -82.5 212.5t-206.5 86.5h-54 q-123 0 -205.5 -86.5t-82.5 -212.5v-371zM545 1341l274 254h156l-316 -254h-114z" />
<glyph unicode="&#xf4;" horiz-adv-x="1204" d="M184 379v371q0 164 113.5 278.5t277.5 114.5h54q164 0 277.5 -114.5t113.5 -278.5v-373q0 -164 -114.5 -278.5t-278.5 -114.5h-47q-164 0 -280 115.5t-116 279.5zM258 1341l274 254h140l274 -254h-115l-229 185l-229 -185h-115zM287 379q0 -125 84.5 -213t208.5 -88h47 q124 0 207.5 87t83.5 212v373q0 126 -82.5 212.5t-206.5 86.5h-54q-123 0 -205.5 -86.5t-82.5 -212.5v-371z" />
<glyph unicode="&#xf5;" horiz-adv-x="1204" d="M184 379v371q0 164 113.5 278.5t277.5 114.5h54q164 0 277.5 -114.5t113.5 -278.5v-373q0 -164 -114.5 -278.5t-278.5 -114.5h-47q-164 0 -280 115.5t-116 279.5zM217 1389q93 100 229 100q108 0 185 -59q56 -46 129 -46q92 0 153 68l76 -61q-94 -101 -229 -101 q-104 0 -185 62q-52 43 -129 43q-92 0 -153 -68zM287 379q0 -125 84.5 -213t208.5 -88h47q124 0 207.5 87t83.5 212v373q0 126 -82.5 212.5t-206.5 86.5h-54q-123 0 -205.5 -86.5t-82.5 -212.5v-371z" />
<glyph unicode="&#xf6;" horiz-adv-x="1204" d="M184 379v371q0 164 113.5 278.5t277.5 114.5h54q164 0 277.5 -114.5t113.5 -278.5v-373q0 -164 -114.5 -278.5t-278.5 -114.5h-47q-164 0 -280 115.5t-116 279.5zM287 379q0 -125 84.5 -213t208.5 -88h47q124 0 207.5 87t83.5 212v373q0 126 -82.5 212.5t-206.5 86.5h-54 q-123 0 -205.5 -86.5t-82.5 -212.5v-371zM309 1300v189h180v-189h-180zM715 1300v189h180v-189h-180z" />
<glyph unicode="&#xf7;" d="M147 516v94h1037v-94h-1037zM575 0v188h181v-188h-181zM575 936v188h181v-188h-181z" />
<glyph unicode="&#xf8;" horiz-adv-x="1204" d="M184 379v371q0 164 113.5 278.5t277.5 114.5h54q164 0 277.5 -114.5t113.5 -278.5v-373q0 -164 -114.5 -278.5t-278.5 -114.5h-47q-164 0 -280 115.5t-116 279.5zM287 379q0 -86 37 -150l469 768q-79 52 -164 52h-54q-123 0 -205.5 -86.5t-82.5 -212.5v-371zM389 147 q82 -69 191 -69h47q124 0 207.5 87t83.5 212v373q0 96 -54 176z" />
<glyph unicode="&#xf9;" horiz-adv-x="1245" d="M205 379v747h102v-747q0 -125 84.5 -213t208.5 -88h47q121 0 206 84.5t85 204.5v759h102v-1126h-77l-17 139q-51 -73 -128 -114t-171 -41h-47q-164 0 -279.5 115.5t-115.5 279.5zM408 1595h155l275 -254h-115z" />
<glyph unicode="&#xfa;" horiz-adv-x="1245" d="M205 379v747h102v-747q0 -125 84.5 -213t208.5 -88h47q121 0 206 84.5t85 204.5v759h102v-1126h-77l-17 139q-51 -73 -128 -114t-171 -41h-47q-164 0 -279.5 115.5t-115.5 279.5zM408 1341l274 254h156l-316 -254h-114z" />
<glyph unicode="&#xfb;" horiz-adv-x="1245" d="M205 379v747h102v-747q0 -125 84.5 -213t208.5 -88h47q121 0 206 84.5t85 204.5v759h102v-1126h-77l-17 139q-51 -73 -128 -114t-171 -41h-47q-164 0 -279.5 115.5t-115.5 279.5zM279 1341l274 254h139l275 -254h-115l-229 185l-230 -185h-114z" />
<glyph unicode="&#xfc;" horiz-adv-x="1245" d="M205 379v747h102v-747q0 -125 84.5 -213t208.5 -88h47q121 0 206 84.5t85 204.5v759h102v-1126h-77l-17 139q-51 -73 -128 -114t-171 -41h-47q-164 0 -279.5 115.5t-115.5 279.5zM330 1257v189h180v-189h-180zM735 1257v189h180v-189h-180z" />
<glyph unicode="&#xfd;" horiz-adv-x="1060" d="M102 1126h103l338 -976l293 976h102l-463 -1546h-102l123 412zM305 1341l275 254h155l-315 -254h-115z" />
<glyph unicode="&#xfe;" d="M147 0v1466h103v-514q85 95 211 95h409q129 0 221.5 -92.5t92.5 -221.5t-92.5 -221t-221.5 -92h-409q-130 0 -211 94v-514h-103zM250 733q0 -92 60.5 -155.5t150.5 -63.5h409q90 0 150.5 63.5t60.5 155.5t-60.5 155.5t-150.5 63.5h-409q-89 0 -150 -61.5t-61 -149.5v-8z " />
<glyph unicode="&#xff;" horiz-adv-x="1060" d="M102 1126h103l338 -976l293 976h102l-463 -1546h-102l123 412zM227 1257v189h181v-189h-181zM633 1257v189h180v-189h-180z" />
<glyph unicode="&#x152;" horiz-adv-x="1562" d="M184 395v678q0 164 113.5 278.5t277.5 114.5h844v-94h-497v-590h315v-94h-315v-594h495v-94h-837q-164 0 -280 115.5t-116 279.5zM287 395q0 -125 84.5 -213t208.5 -88h239v1278h-244q-123 0 -205.5 -86.5t-82.5 -212.5v-678z" />
<glyph unicode="&#x153;" horiz-adv-x="1822" d="M184 379v369q0 164 116 279.5t280 115.5q116 0 206.5 -61.5t135.5 -163.5q44 102 135 163.5t207 61.5q164 0 279.5 -115.5t115.5 -279.5v-232h-686v-139q0 -130 85 -214.5t220 -84.5q188 0 268 153l92 -43q-53 -97 -147.5 -150.5t-212.5 -53.5q-124 0 -218 60.5 t-138 162.5q-44 -103 -133 -163t-209 -60q-164 0 -280 115.5t-116 279.5zM287 379q0 -125 84.5 -213t208.5 -88t207 87t83 212v371q0 126 -83.5 213.5t-206.5 87.5q-124 0 -208.5 -88t-84.5 -213v-369zM973 610h583v138q0 125 -84 213t-208 88t-207.5 -88t-83.5 -213v-138z " />
<glyph unicode="&#x178;" horiz-adv-x="1183" d="M102 1466h115l375 -637l375 637h114l-438 -743v-723h-102v723zM299 1597v189h180v-189h-180zM705 1597v189h180v-189h-180z" />
<glyph unicode="&#x2c6;" d="M322 1518l274 254h139l275 -254h-115l-229 184l-230 -184h-114z" />
<glyph unicode="&#x2dc;" d="M279 1665q93 100 229 100q107 0 184 -59q54 -45 129 -45q93 0 154 68l76 -62q-44 -47 -104 -73.5t-126 -26.5q-104 0 -184 61q-52 43 -129 43q-94 0 -154 -67z" />
<glyph unicode="&#x2000;" horiz-adv-x="1005" />
<glyph unicode="&#x2001;" horiz-adv-x="2011" />
<glyph unicode="&#x2002;" horiz-adv-x="1005" />
<glyph unicode="&#x2003;" horiz-adv-x="2011" />
<glyph unicode="&#x2004;" horiz-adv-x="670" />
<glyph unicode="&#x2005;" horiz-adv-x="502" />
<glyph unicode="&#x2006;" horiz-adv-x="335" />
<glyph unicode="&#x2007;" horiz-adv-x="335" />
<glyph unicode="&#x2008;" horiz-adv-x="251" />
<glyph unicode="&#x2009;" horiz-adv-x="402" />
<glyph unicode="&#x200a;" horiz-adv-x="111" />
<glyph unicode="&#x2010;" d="M352 516v94h625v-94h-625z" />
<glyph unicode="&#x2011;" d="M352 516v94h625v-94h-625z" />
<glyph unicode="&#x2012;" d="M352 516v94h625v-94h-625z" />
<glyph unicode="&#x2013;" horiz-adv-x="1269" d="M123 516v94h1024v-94h-1024z" />
<glyph unicode="&#x2014;" horiz-adv-x="2140" d="M164 516v94h1812v-94h-1812z" />
<glyph unicode="&#x2018;" horiz-adv-x="620" d="M205 938v186q0 113 36.5 189.5t123.5 152.5l51 -59q-69 -60 -94 -119t-25 -139h117v-211h-209z" />
<glyph unicode="&#x2019;" horiz-adv-x="620" d="M205 997q69 60 94 119t25 139h-117v211h209v-186q0 -113 -36.5 -189.5t-123.5 -152.5z" />
<glyph unicode="&#x201a;" horiz-adv-x="620" d="M205 59q69 60 94 119t25 139h-117v211h209v-186q0 -113 -36.5 -189.5t-123.5 -152.5z" />
<glyph unicode="&#x201c;" horiz-adv-x="1089" d="M205 938v186q0 113 36.5 189.5t123.5 152.5l51 -59q-69 -60 -94 -119t-25 -139h117v-211h-209zM674 938v186q0 113 36.5 189.5t123.5 152.5l51 -59q-69 -60 -94 -119t-25 -139h117v-211h-209z" />
<glyph unicode="&#x201d;" horiz-adv-x="1089" d="M205 997q69 60 94 119t25 139h-117v211h209v-186q0 -113 -36.5 -189.5t-123.5 -152.5zM674 997q69 60 94 119t25 139h-117v211h209v-186q0 -113 -36.5 -189.5t-123.5 -152.5z" />
<glyph unicode="&#x201e;" horiz-adv-x="1089" d="M205 59q69 60 94 119t25 139h-117v211h209v-186q0 -113 -36.5 -189.5t-123.5 -152.5zM674 59q69 60 94 119t25 139h-117v211h209v-186q0 -113 -36.5 -189.5t-123.5 -152.5z" />
<glyph unicode="&#x2022;" d="M362 690q0 126 89 214.5t215 88.5t214.5 -88.5t88.5 -214.5t-88.5 -214.5t-214.5 -88.5t-215 88.5t-89 214.5z" />
<glyph unicode="&#x2026;" horiz-adv-x="1372" d="M123 0v211h209v-211h-209zM582 0v211h209v-211h-209zM1040 0v211h209v-211h-209z" />
<glyph unicode="&#x202f;" horiz-adv-x="402" />
<glyph unicode="&#x2039;" horiz-adv-x="716" d="M184 569l246 408h102l-233 -408l233 -407h-102z" />
<glyph unicode="&#x203a;" horiz-adv-x="716" d="M184 162l234 407l-234 408h103l245 -408l-245 -407h-103z" />
<glyph unicode="&#x205f;" horiz-adv-x="502" />
<glyph unicode="&#x20ac;" d="M147 561v94h226v156h-226v94h226v185q0 164 113.5 278.5t277.5 114.5h74q111 0 203.5 -55.5t142.5 -149.5l-92 -43q-38 71 -104.5 112.5t-149.5 41.5h-74q-124 0 -206.5 -86.5t-82.5 -212.5v-185h529v-94h-529v-156h529v-94h-529v-182q0 -125 84.5 -213t208.5 -88h70 q83 0 149.5 41t104.5 112l92 -43q-50 -93 -142.5 -148.5t-203.5 -55.5h-70q-164 0 -279.5 115.5t-115.5 279.5v182h-226z" />
<glyph unicode="&#x2122;" d="M147 1372v94h484v-94h-191v-639h-102v639h-191zM700 733v733h105l137 -356l137 356h105v-733h-103v492l-92 -236h-94l-92 236v-492h-103z" />
<glyph unicode="&#x25fc;" horiz-adv-x="1126" d="M0 0v1126h1126v-1126h-1126z" />
</font>
</defs>
</svg>
